<?xml version="1.0" standalone="no"?>
 <!DOCTYPE svg PUBLIC "-//W3C//DTD SVG 1.1//EN" 
 "http://www.w3.org/Graphics/SVG/1.1/DTD/svg11.dtd"> 
<svg xmlns="http://www.w3.org/2000/svg" version="1.1" 
    width="29.7002cm" height="21.0007cm" viewBox="0 0 116930 82680 ">
<title>SVG Picture created as Practica 1 regulador de voltaje tps563200-F.Cu.svg date 2020/03/31 13:08:13 </title>
  <desc>Picture generated by PCBNEW </desc>
<g style="fill:#000000; fill-opacity:1;stroke:#000000; stroke-opacity:1;
stroke-linecap:round; stroke-linejoin:round; "
 transform="translate(0 0) scale(1 1)">
</g>
<g style="fill:#000000; fill-opacity:0.0; 
stroke:#000000; stroke-width:-0.000393701; stroke-opacity:1; 
stroke-linecap:round; stroke-linejoin:round;">
</g>
<g style="fill:#000000; fill-opacity:0.0; 
stroke:#000000; stroke-width:39.3701; stroke-opacity:1; 
stroke-linecap:round; stroke-linejoin:round;">
</g>
<g style="fill:#000000; fill-opacity:0.0; 
stroke:#000000; stroke-width:59.0551; stroke-opacity:1; 
stroke-linecap:round; stroke-linejoin:round;">
<rect x="69685.9" y="65357.2" width="42519.7" height="12598.4" rx="0" />
</g>
<g style="fill:#000000; fill-opacity:0.0; 
stroke:#000000; stroke-width:39.3701; stroke-opacity:1; 
stroke-linecap:round; stroke-linejoin:round;">
</g>
<g style="fill:#000000; fill-opacity:0.0; 
stroke:#000000; stroke-width:59.0551; stroke-opacity:1; 
stroke-linecap:round; stroke-linejoin:round;">
<rect x="3937.01" y="3937.01" width="109056" height="74806" rx="0" />
</g>
<g style="fill:#000000; fill-opacity:0.0; 
stroke:#000000; stroke-width:39.3701; stroke-opacity:1; 
stroke-linecap:round; stroke-linejoin:round;">
</g>
<g style="fill:#000000; fill-opacity:0.0; 
stroke:#000000; stroke-width:59.0551; stroke-opacity:1; 
stroke-linecap:round; stroke-linejoin:round;">
<rect x="4724.41" y="4724.41" width="107481" height="73231.2" rx="0" />
</g>
<g style="fill:#000000; fill-opacity:0.0; 
stroke:#000000; stroke-width:39.3701; stroke-opacity:1; 
stroke-linecap:round; stroke-linejoin:round;">
</g>
<g style="fill:#000000; fill-opacity:0.0; 
stroke:#000000; stroke-width:59.0551; stroke-opacity:1; 
stroke-linecap:round; stroke-linejoin:round;">
<path d="M23622 4724
L23622 3937
" />
</g>
<g style="fill:#000000; fill-opacity:0.0; 
stroke:#000000; stroke-width:39.3701; stroke-opacity:1; 
stroke-linecap:round; stroke-linejoin:round;">
</g>
<g style="fill:#000000; fill-opacity:0.0; 
stroke:#000000; stroke-width:59.0551; stroke-opacity:1; 
stroke-linecap:round; stroke-linejoin:round;">
<path d="M43307 4724
L43307 3937
" />
</g>
<g style="fill:#000000; fill-opacity:0.0; 
stroke:#000000; stroke-width:39.3701; stroke-opacity:1; 
stroke-linecap:round; stroke-linejoin:round;">
</g>
<g style="fill:#000000; fill-opacity:0.0; 
stroke:#000000; stroke-width:59.0551; stroke-opacity:1; 
stroke-linecap:round; stroke-linejoin:round;">
<path d="M62992 4724
L62992 3937
" />
</g>
<g style="fill:#000000; fill-opacity:0.0; 
stroke:#000000; stroke-width:39.3701; stroke-opacity:1; 
stroke-linecap:round; stroke-linejoin:round;">
</g>
<g style="fill:#000000; fill-opacity:0.0; 
stroke:#000000; stroke-width:59.0551; stroke-opacity:1; 
stroke-linecap:round; stroke-linejoin:round;">
<path d="M82677 4724
L82677 3937
" />
</g>
<g style="fill:#000000; fill-opacity:0.0; 
stroke:#000000; stroke-width:39.3701; stroke-opacity:1; 
stroke-linecap:round; stroke-linejoin:round;">
</g>
<g style="fill:#000000; fill-opacity:0.0; 
stroke:#000000; stroke-width:59.0551; stroke-opacity:1; 
stroke-linecap:round; stroke-linejoin:round;">
<path d="M102362 4724
L102362 3937
" />
</g>
<g style="fill:#000000; fill-opacity:0.0; 
stroke:#000000; stroke-width:39.3701; stroke-opacity:1; 
stroke-linecap:round; stroke-linejoin:round;">
</g>
<g style="fill:#000000; fill-opacity:0.0; 
stroke:#000000; stroke-width:59.0551; stroke-opacity:1; 
stroke-linecap:round; stroke-linejoin:round;">
<path d="M14199 4562
L13906 4562
" />
<path d="M14052 4562
L14052 4050
L14004 4123
L13955 4172
L13906 4196
" />
</g>
<g style="fill:#000000; fill-opacity:0.0; 
stroke:#000000; stroke-width:39.3701; stroke-opacity:1; 
stroke-linecap:round; stroke-linejoin:round;">
</g>
<g style="fill:#000000; fill-opacity:0.0; 
stroke:#000000; stroke-width:59.0551; stroke-opacity:1; 
stroke-linecap:round; stroke-linejoin:round;">
<path d="M33591 4099
L33615 4074
L33664 4050
L33786 4050
L33835 4074
L33859 4099
L33884 4147
L33884 4196
L33859 4269
L33567 4562
L33884 4562
" />
</g>
<g style="fill:#000000; fill-opacity:0.0; 
stroke:#000000; stroke-width:39.3701; stroke-opacity:1; 
stroke-linecap:round; stroke-linejoin:round;">
</g>
<g style="fill:#000000; fill-opacity:0.0; 
stroke:#000000; stroke-width:59.0551; stroke-opacity:1; 
stroke-linecap:round; stroke-linejoin:round;">
<path d="M53252 4050
L53569 4050
L53398 4245
L53471 4245
L53520 4269
L53544 4294
L53569 4342
L53569 4464
L53544 4513
L53520 4537
L53471 4562
L53325 4562
L53276 4537
L53252 4513
" />
</g>
<g style="fill:#000000; fill-opacity:0.0; 
stroke:#000000; stroke-width:39.3701; stroke-opacity:1; 
stroke-linecap:round; stroke-linejoin:round;">
</g>
<g style="fill:#000000; fill-opacity:0.0; 
stroke:#000000; stroke-width:59.0551; stroke-opacity:1; 
stroke-linecap:round; stroke-linejoin:round;">
<path d="M73205 4221
L73205 4562
" />
<path d="M73083 4026
L72961 4391
L73278 4391
" />
</g>
<g style="fill:#000000; fill-opacity:0.0; 
stroke:#000000; stroke-width:39.3701; stroke-opacity:1; 
stroke-linecap:round; stroke-linejoin:round;">
</g>
<g style="fill:#000000; fill-opacity:0.0; 
stroke:#000000; stroke-width:59.0551; stroke-opacity:1; 
stroke-linecap:round; stroke-linejoin:round;">
<path d="M92914 4050
L92671 4050
L92646 4294
L92671 4269
L92719 4245
L92841 4245
L92890 4269
L92914 4294
L92939 4342
L92939 4464
L92914 4513
L92890 4537
L92841 4562
L92719 4562
L92671 4537
L92646 4513
" />
</g>
<g style="fill:#000000; fill-opacity:0.0; 
stroke:#000000; stroke-width:39.3701; stroke-opacity:1; 
stroke-linecap:round; stroke-linejoin:round;">
</g>
<g style="fill:#000000; fill-opacity:0.0; 
stroke:#000000; stroke-width:59.0551; stroke-opacity:1; 
stroke-linecap:round; stroke-linejoin:round;">
<path d="M112575 4050
L112477 4050
L112429 4074
L112404 4099
L112356 4172
L112331 4269
L112331 4464
L112356 4513
L112380 4537
L112429 4562
L112526 4562
L112575 4537
L112599 4513
L112624 4464
L112624 4342
L112599 4294
L112575 4269
L112526 4245
L112429 4245
L112380 4269
L112356 4294
L112331 4342
" />
</g>
<g style="fill:#000000; fill-opacity:0.0; 
stroke:#000000; stroke-width:39.3701; stroke-opacity:1; 
stroke-linecap:round; stroke-linejoin:round;">
</g>
<g style="fill:#000000; fill-opacity:0.0; 
stroke:#000000; stroke-width:59.0551; stroke-opacity:1; 
stroke-linecap:round; stroke-linejoin:round;">
<path d="M23622 77955
L23622 78742
" />
</g>
<g style="fill:#000000; fill-opacity:0.0; 
stroke:#000000; stroke-width:39.3701; stroke-opacity:1; 
stroke-linecap:round; stroke-linejoin:round;">
</g>
<g style="fill:#000000; fill-opacity:0.0; 
stroke:#000000; stroke-width:59.0551; stroke-opacity:1; 
stroke-linecap:round; stroke-linejoin:round;">
<path d="M43307 77955
L43307 78742
" />
</g>
<g style="fill:#000000; fill-opacity:0.0; 
stroke:#000000; stroke-width:39.3701; stroke-opacity:1; 
stroke-linecap:round; stroke-linejoin:round;">
</g>
<g style="fill:#000000; fill-opacity:0.0; 
stroke:#000000; stroke-width:59.0551; stroke-opacity:1; 
stroke-linecap:round; stroke-linejoin:round;">
<path d="M62992 77955
L62992 78742
" />
</g>
<g style="fill:#000000; fill-opacity:0.0; 
stroke:#000000; stroke-width:39.3701; stroke-opacity:1; 
stroke-linecap:round; stroke-linejoin:round;">
</g>
<g style="fill:#000000; fill-opacity:0.0; 
stroke:#000000; stroke-width:59.0551; stroke-opacity:1; 
stroke-linecap:round; stroke-linejoin:round;">
<path d="M82677 77955
L82677 78742
" />
</g>
<g style="fill:#000000; fill-opacity:0.0; 
stroke:#000000; stroke-width:39.3701; stroke-opacity:1; 
stroke-linecap:round; stroke-linejoin:round;">
</g>
<g style="fill:#000000; fill-opacity:0.0; 
stroke:#000000; stroke-width:59.0551; stroke-opacity:1; 
stroke-linecap:round; stroke-linejoin:round;">
<path d="M102362 77955
L102362 78742
" />
</g>
<g style="fill:#000000; fill-opacity:0.0; 
stroke:#000000; stroke-width:39.3701; stroke-opacity:1; 
stroke-linecap:round; stroke-linejoin:round;">
</g>
<g style="fill:#000000; fill-opacity:0.0; 
stroke:#000000; stroke-width:59.0551; stroke-opacity:1; 
stroke-linecap:round; stroke-linejoin:round;">
<path d="M14199 78580
L13906 78580
" />
<path d="M14052 78580
L14052 78069
L14004 78142
L13955 78190
L13906 78215
" />
</g>
<g style="fill:#000000; fill-opacity:0.0; 
stroke:#000000; stroke-width:39.3701; stroke-opacity:1; 
stroke-linecap:round; stroke-linejoin:round;">
</g>
<g style="fill:#000000; fill-opacity:0.0; 
stroke:#000000; stroke-width:59.0551; stroke-opacity:1; 
stroke-linecap:round; stroke-linejoin:round;">
<path d="M33591 78117
L33615 78093
L33664 78069
L33786 78069
L33835 78093
L33859 78117
L33884 78166
L33884 78215
L33859 78288
L33567 78580
L33884 78580
" />
</g>
<g style="fill:#000000; fill-opacity:0.0; 
stroke:#000000; stroke-width:39.3701; stroke-opacity:1; 
stroke-linecap:round; stroke-linejoin:round;">
</g>
<g style="fill:#000000; fill-opacity:0.0; 
stroke:#000000; stroke-width:59.0551; stroke-opacity:1; 
stroke-linecap:round; stroke-linejoin:round;">
<path d="M53252 78069
L53569 78069
L53398 78263
L53471 78263
L53520 78288
L53544 78312
L53569 78361
L53569 78483
L53544 78532
L53520 78556
L53471 78580
L53325 78580
L53276 78556
L53252 78532
" />
</g>
<g style="fill:#000000; fill-opacity:0.0; 
stroke:#000000; stroke-width:39.3701; stroke-opacity:1; 
stroke-linecap:round; stroke-linejoin:round;">
</g>
<g style="fill:#000000; fill-opacity:0.0; 
stroke:#000000; stroke-width:59.0551; stroke-opacity:1; 
stroke-linecap:round; stroke-linejoin:round;">
<path d="M73205 78239
L73205 78580
" />
<path d="M73083 78044
L72961 78410
L73278 78410
" />
</g>
<g style="fill:#000000; fill-opacity:0.0; 
stroke:#000000; stroke-width:39.3701; stroke-opacity:1; 
stroke-linecap:round; stroke-linejoin:round;">
</g>
<g style="fill:#000000; fill-opacity:0.0; 
stroke:#000000; stroke-width:59.0551; stroke-opacity:1; 
stroke-linecap:round; stroke-linejoin:round;">
<path d="M92914 78069
L92671 78069
L92646 78312
L92671 78288
L92719 78263
L92841 78263
L92890 78288
L92914 78312
L92939 78361
L92939 78483
L92914 78532
L92890 78556
L92841 78580
L92719 78580
L92671 78556
L92646 78532
" />
</g>
<g style="fill:#000000; fill-opacity:0.0; 
stroke:#000000; stroke-width:39.3701; stroke-opacity:1; 
stroke-linecap:round; stroke-linejoin:round;">
</g>
<g style="fill:#000000; fill-opacity:0.0; 
stroke:#000000; stroke-width:59.0551; stroke-opacity:1; 
stroke-linecap:round; stroke-linejoin:round;">
<path d="M112575 78069
L112477 78069
L112429 78093
L112404 78117
L112356 78190
L112331 78288
L112331 78483
L112356 78532
L112380 78556
L112429 78580
L112526 78580
L112575 78556
L112599 78532
L112624 78483
L112624 78361
L112599 78312
L112575 78288
L112526 78263
L112429 78263
L112380 78288
L112356 78312
L112331 78361
" />
</g>
<g style="fill:#000000; fill-opacity:0.0; 
stroke:#000000; stroke-width:39.3701; stroke-opacity:1; 
stroke-linecap:round; stroke-linejoin:round;">
</g>
<g style="fill:#000000; fill-opacity:0.0; 
stroke:#000000; stroke-width:59.0551; stroke-opacity:1; 
stroke-linecap:round; stroke-linejoin:round;">
<path d="M3937 23622
L4724 23622
" />
</g>
<g style="fill:#000000; fill-opacity:0.0; 
stroke:#000000; stroke-width:39.3701; stroke-opacity:1; 
stroke-linecap:round; stroke-linejoin:round;">
</g>
<g style="fill:#000000; fill-opacity:0.0; 
stroke:#000000; stroke-width:59.0551; stroke-opacity:1; 
stroke-linecap:round; stroke-linejoin:round;">
<path d="M3937 43307
L4724 43307
" />
</g>
<g style="fill:#000000; fill-opacity:0.0; 
stroke:#000000; stroke-width:39.3701; stroke-opacity:1; 
stroke-linecap:round; stroke-linejoin:round;">
</g>
<g style="fill:#000000; fill-opacity:0.0; 
stroke:#000000; stroke-width:59.0551; stroke-opacity:1; 
stroke-linecap:round; stroke-linejoin:round;">
<path d="M3937 62992
L4724 62992
" />
</g>
<g style="fill:#000000; fill-opacity:0.0; 
stroke:#000000; stroke-width:39.3701; stroke-opacity:1; 
stroke-linecap:round; stroke-linejoin:round;">
</g>
<g style="fill:#000000; fill-opacity:0.0; 
stroke:#000000; stroke-width:59.0551; stroke-opacity:1; 
stroke-linecap:round; stroke-linejoin:round;">
<path d="M4208 13864
L4452 13864
" />
<path d="M4160 14011
L4330 13499
L4501 14011
" />
</g>
<g style="fill:#000000; fill-opacity:0.0; 
stroke:#000000; stroke-width:39.3701; stroke-opacity:1; 
stroke-linecap:round; stroke-linejoin:round;">
</g>
<g style="fill:#000000; fill-opacity:0.0; 
stroke:#000000; stroke-width:59.0551; stroke-opacity:1; 
stroke-linecap:round; stroke-linejoin:round;">
<path d="M4367 33428
L4440 33452
L4464 33476
L4489 33525
L4489 33598
L4464 33647
L4440 33671
L4391 33696
L4196 33696
L4196 33184
L4367 33184
L4416 33208
L4440 33233
L4464 33281
L4464 33330
L4440 33379
L4416 33403
L4367 33428
L4196 33428
" />
</g>
<g style="fill:#000000; fill-opacity:0.0; 
stroke:#000000; stroke-width:39.3701; stroke-opacity:1; 
stroke-linecap:round; stroke-linejoin:round;">
</g>
<g style="fill:#000000; fill-opacity:0.0; 
stroke:#000000; stroke-width:59.0551; stroke-opacity:1; 
stroke-linecap:round; stroke-linejoin:round;">
<path d="M4489 53332
L4464 53356
L4391 53381
L4342 53381
L4269 53356
L4221 53308
L4196 53259
L4172 53161
L4172 53088
L4196 52991
L4221 52942
L4269 52893
L4342 52869
L4391 52869
L4464 52893
L4489 52918
" />
</g>
<g style="fill:#000000; fill-opacity:0.0; 
stroke:#000000; stroke-width:39.3701; stroke-opacity:1; 
stroke-linecap:round; stroke-linejoin:round;">
</g>
<g style="fill:#000000; fill-opacity:0.0; 
stroke:#000000; stroke-width:59.0551; stroke-opacity:1; 
stroke-linecap:round; stroke-linejoin:round;">
<path d="M4196 73066
L4196 72554
L4318 72554
L4391 72578
L4440 72627
L4464 72676
L4489 72773
L4489 72846
L4464 72944
L4440 72993
L4391 73041
L4318 73066
L4196 73066
" />
</g>
<g style="fill:#000000; fill-opacity:0.0; 
stroke:#000000; stroke-width:39.3701; stroke-opacity:1; 
stroke-linecap:round; stroke-linejoin:round;">
</g>
<g style="fill:#000000; fill-opacity:0.0; 
stroke:#000000; stroke-width:59.0551; stroke-opacity:1; 
stroke-linecap:round; stroke-linejoin:round;">
<path d="M112992 23622
L112205 23622
" />
</g>
<g style="fill:#000000; fill-opacity:0.0; 
stroke:#000000; stroke-width:39.3701; stroke-opacity:1; 
stroke-linecap:round; stroke-linejoin:round;">
</g>
<g style="fill:#000000; fill-opacity:0.0; 
stroke:#000000; stroke-width:59.0551; stroke-opacity:1; 
stroke-linecap:round; stroke-linejoin:round;">
<path d="M112992 43307
L112205 43307
" />
</g>
<g style="fill:#000000; fill-opacity:0.0; 
stroke:#000000; stroke-width:39.3701; stroke-opacity:1; 
stroke-linecap:round; stroke-linejoin:round;">
</g>
<g style="fill:#000000; fill-opacity:0.0; 
stroke:#000000; stroke-width:59.0551; stroke-opacity:1; 
stroke-linecap:round; stroke-linejoin:round;">
<path d="M112992 62992
L112205 62992
" />
</g>
<g style="fill:#000000; fill-opacity:0.0; 
stroke:#000000; stroke-width:39.3701; stroke-opacity:1; 
stroke-linecap:round; stroke-linejoin:round;">
</g>
<g style="fill:#000000; fill-opacity:0.0; 
stroke:#000000; stroke-width:59.0551; stroke-opacity:1; 
stroke-linecap:round; stroke-linejoin:round;">
<path d="M112477 13864
L112721 13864
" />
<path d="M112428 14011
L112599 13499
L112769 14011
" />
</g>
<g style="fill:#000000; fill-opacity:0.0; 
stroke:#000000; stroke-width:39.3701; stroke-opacity:1; 
stroke-linecap:round; stroke-linejoin:round;">
</g>
<g style="fill:#000000; fill-opacity:0.0; 
stroke:#000000; stroke-width:59.0551; stroke-opacity:1; 
stroke-linecap:round; stroke-linejoin:round;">
<path d="M112635 33428
L112708 33452
L112733 33476
L112757 33525
L112757 33598
L112733 33647
L112708 33671
L112660 33696
L112465 33696
L112465 33184
L112635 33184
L112684 33208
L112708 33233
L112733 33281
L112733 33330
L112708 33379
L112684 33403
L112635 33428
L112465 33428
" />
</g>
<g style="fill:#000000; fill-opacity:0.0; 
stroke:#000000; stroke-width:39.3701; stroke-opacity:1; 
stroke-linecap:round; stroke-linejoin:round;">
</g>
<g style="fill:#000000; fill-opacity:0.0; 
stroke:#000000; stroke-width:59.0551; stroke-opacity:1; 
stroke-linecap:round; stroke-linejoin:round;">
<path d="M112757 53332
L112733 53356
L112660 53381
L112611 53381
L112538 53356
L112489 53308
L112465 53259
L112440 53161
L112440 53088
L112465 52991
L112489 52942
L112538 52893
L112611 52869
L112660 52869
L112733 52893
L112757 52918
" />
</g>
<g style="fill:#000000; fill-opacity:0.0; 
stroke:#000000; stroke-width:39.3701; stroke-opacity:1; 
stroke-linecap:round; stroke-linejoin:round;">
</g>
<g style="fill:#000000; fill-opacity:0.0; 
stroke:#000000; stroke-width:59.0551; stroke-opacity:1; 
stroke-linecap:round; stroke-linejoin:round;">
<path d="M112465 73066
L112465 72554
L112587 72554
L112660 72578
L112708 72627
L112733 72676
L112757 72773
L112757 72846
L112733 72944
L112708 72993
L112660 73041
L112587 73066
L112465 73066
" />
</g>
<g style="fill:#000000; fill-opacity:0.0; 
stroke:#000000; stroke-width:39.3701; stroke-opacity:1; 
stroke-linecap:round; stroke-linejoin:round;">
</g>
<g style="fill:#000000; fill-opacity:0.0; 
stroke:#000000; stroke-width:59.0551; stroke-opacity:1; 
stroke-linecap:round; stroke-linejoin:round;">
<path d="M78911 76293
L78911 75703
L79051 75703
L79136 75731
L79192 75787
L79220 75843
L79248 75956
L79248 76040
L79220 76153
L79192 76209
L79136 76265
L79051 76293
L78911 76293
" />
<path d="M79754 76293
L79754 75984
L79726 75928
L79670 75899
L79557 75899
L79501 75928
" />
<path d="M79754 76265
L79698 76293
L79557 76293
L79501 76265
L79473 76209
L79473 76153
L79501 76096
L79557 76068
L79698 76068
L79754 76040
" />
<path d="M79951 75899
L80176 75899
" />
<path d="M80036 75703
L80036 76209
L80064 76265
L80120 76293
L80176 76293
" />
<path d="M80598 76265
L80542 76293
L80429 76293
L80373 76265
L80345 76209
L80345 75984
L80373 75928
L80429 75899
L80542 75899
L80598 75928
L80626 75984
L80626 76040
L80345 76096
" />
<path d="M80879 76237
L80907 76265
L80879 76293
L80851 76265
L80879 76237
L80879 76293
" />
<path d="M80879 75928
L80907 75956
L80879 75984
L80851 75956
L80879 75928
L80879 75984
" />
</g>
<g style="fill:#000000; fill-opacity:0.0; 
stroke:#000000; stroke-width:39.3701; stroke-opacity:1; 
stroke-linecap:round; stroke-linejoin:round;">
</g>
<g style="fill:#000000; fill-opacity:0.0; 
stroke:#000000; stroke-width:59.0551; stroke-opacity:1; 
stroke-linecap:round; stroke-linejoin:round;">
<path d="M69685 76577
L112205 76577
" />
</g>
<g style="fill:#000000; fill-opacity:0.0; 
stroke:#000000; stroke-width:39.3701; stroke-opacity:1; 
stroke-linecap:round; stroke-linejoin:round;">
</g>
<g style="fill:#000000; fill-opacity:0.0; 
stroke:#000000; stroke-width:59.0551; stroke-opacity:1; 
stroke-linecap:round; stroke-linejoin:round;">
<path d="M70249 77395
L70249 76805
" />
<path d="M70587 77395
L70334 77058
" />
<path d="M70587 76805
L70249 77142
" />
<path d="M70840 77395
L70840 77002
" />
<path d="M70840 76805
L70812 76833
L70840 76861
L70868 76833
L70840 76805
L70840 76861
" />
<path d="M71458 77339
L71430 77367
L71346 77395
L71290 77395
L71205 77367
L71149 77311
L71121 77255
L71093 77142
L71093 77058
L71121 76946
L71149 76889
L71205 76833
L71290 76805
L71346 76805
L71430 76833
L71458 76861
" />
<path d="M71965 77395
L71965 77086
L71937 77030
L71880 77002
L71768 77002
L71712 77030
" />
<path d="M71965 77367
L71908 77395
L71768 77395
L71712 77367
L71683 77311
L71683 77255
L71712 77199
L71768 77171
L71908 77171
L71965 77142
" />
<path d="M72499 77395
L72499 76805
" />
<path d="M72499 77367
L72443 77395
L72330 77395
L72274 77367
L72246 77339
L72218 77283
L72218 77114
L72246 77058
L72274 77030
L72330 77002
L72443 77002
L72499 77030
" />
<path d="M73230 77086
L73427 77086
" />
<path d="M73511 77395
L73230 77395
L73230 76805
L73511 76805
" />
<path d="M73764 77339
L73793 77367
L73764 77395
L73736 77367
L73764 77339
L73764 77395
" />
<path d="M74046 77395
L74046 76805
L74186 76805
L74271 76833
L74327 76889
L74355 76946
L74383 77058
L74383 77142
L74355 77255
L74327 77311
L74271 77367
L74186 77395
L74046 77395
" />
<path d="M74636 77339
L74664 77367
L74636 77395
L74608 77367
L74636 77339
L74636 77395
" />
<path d="M74889 77227
L75171 77227
" />
<path d="M74833 77395
L75030 76805
L75227 77395
" />
<path d="M75424 77339
L75452 77367
L75424 77395
L75395 77367
L75424 77339
L75424 77395
" />
<path d="M76605 77395
L76605 76805
" />
<path d="M76661 77171
L76830 77395
" />
<path d="M76830 77002
L76605 77227
" />
<path d="M77083 77395
L77083 77002
" />
<path d="M77083 76805
L77055 76833
L77083 76861
L77111 76833
L77083 76805
L77083 76861
" />
<path d="M77617 77367
L77561 77395
L77448 77395
L77392 77367
L77364 77339
L77336 77283
L77336 77114
L77364 77058
L77392 77030
L77448 77002
L77561 77002
L77617 77030
" />
<path d="M78123 77395
L78123 77086
L78095 77030
L78039 77002
L77926 77002
L77870 77030
" />
<path d="M78123 77367
L78067 77395
L77926 77395
L77870 77367
L77842 77311
L77842 77255
L77870 77199
L77926 77171
L78067 77171
L78123 77142
" />
<path d="M78658 77395
L78658 76805
" />
<path d="M78658 77367
L78601 77395
L78489 77395
L78433 77367
L78404 77339
L78376 77283
L78376 77114
L78404 77058
L78433 77030
L78489 77002
L78601 77002
L78658 77030
" />
<path d="M79557 77620
L79529 77592
L79473 77508
L79445 77452
L79417 77367
L79389 77227
L79389 77114
L79417 76974
L79445 76889
L79473 76833
L79529 76749
L79557 76721
" />
<path d="M80064 76805
L79782 76805
L79754 77086
L79782 77058
L79839 77030
L79979 77030
L80036 77058
L80064 77086
L80092 77142
L80092 77283
L80064 77339
L80036 77367
L79979 77395
L79839 77395
L79782 77367
L79754 77339
" />
<path d="M80345 77339
L80373 77367
L80345 77395
L80317 77367
L80345 77339
L80345 77395
" />
<path d="M80739 76805
L80795 76805
L80851 76833
L80879 76861
L80907 76917
L80935 77030
L80935 77171
L80907 77283
L80879 77339
L80851 77367
L80795 77395
L80739 77395
L80682 77367
L80654 77339
L80626 77283
L80598 77171
L80598 77030
L80626 76917
L80654 76861
L80682 76833
L80739 76805
" />
<path d="M81188 77339
L81217 77367
L81188 77395
L81160 77367
L81188 77339
L81188 77395
" />
<path d="M81582 76805
L81638 76805
L81695 76833
L81723 76861
L81751 76917
L81779 77030
L81779 77171
L81751 77283
L81723 77339
L81695 77367
L81638 77395
L81582 77395
L81526 77367
L81498 77339
L81470 77283
L81442 77171
L81442 77030
L81470 76917
L81498 76861
L81526 76833
L81582 76805
" />
<path d="M81976 77620
L82004 77592
L82060 77508
L82088 77452
L82117 77367
L82145 77227
L82145 77114
L82117 76974
L82088 76889
L82060 76833
L82004 76749
L81976 76721
" />
</g>
<g style="fill:#000000; fill-opacity:0.0; 
stroke:#000000; stroke-width:39.3701; stroke-opacity:1; 
stroke-linecap:round; stroke-linejoin:round;">
</g>
<g style="fill:#000000; fill-opacity:0.0; 
stroke:#000000; stroke-width:59.0551; stroke-opacity:1; 
stroke-linecap:round; stroke-linejoin:round;">
<path d="M69685 75396
L112205 75396
" />
</g>
<g style="fill:#000000; fill-opacity:0.0; 
stroke:#000000; stroke-width:39.3701; stroke-opacity:1; 
stroke-linecap:round; stroke-linejoin:round;">
</g>
<g style="fill:#000000; fill-opacity:0.0; 
stroke:#000000; stroke-width:118.11; stroke-opacity:1; 
stroke-linecap:round; stroke-linejoin:round;">
<path d="M104099 76293
L103902 76012
" />
<path d="M103761 76293
L103761 75703
L103986 75703
L104042 75731
L104070 75759
L104099 75815
L104099 75899
L104070 75956
L104042 75984
L103986 76012
L103761 76012
" />
<path d="M104577 76265
L104520 76293
L104408 76293
L104352 76265
L104323 76209
L104323 75984
L104352 75928
L104408 75899
L104520 75899
L104577 75928
L104605 75984
L104605 76040
L104323 76096
" />
<path d="M104802 75899
L104942 76293
L105083 75899
" />
<path d="M105308 76237
L105336 76265
L105308 76293
L105280 76265
L105308 76237
L105308 76293
" />
<path d="M105308 75928
L105336 75956
L105308 75984
L105280 75956
L105308 75928
L105308 75984
" />
</g>
<g style="fill:#000000; fill-opacity:0.0; 
stroke:#000000; stroke-width:39.3701; stroke-opacity:1; 
stroke-linecap:round; stroke-linejoin:round;">
</g>
<g style="fill:#000000; fill-opacity:0.0; 
stroke:#000000; stroke-width:59.0551; stroke-opacity:1; 
stroke-linecap:round; stroke-linejoin:round;">
<path d="M70221 76265
L70305 76293
L70446 76293
L70502 76265
L70530 76237
L70559 76181
L70559 76124
L70530 76068
L70502 76040
L70446 76012
L70334 75984
L70277 75956
L70249 75928
L70221 75871
L70221 75815
L70249 75759
L70277 75731
L70334 75703
L70474 75703
L70559 75731
" />
<path d="M70812 76293
L70812 75899
" />
<path d="M70812 75703
L70784 75731
L70812 75759
L70840 75731
L70812 75703
L70812 75759
" />
<path d="M71037 75899
L71346 75899
L71037 76293
L71346 76293
" />
<path d="M71796 76265
L71740 76293
L71627 76293
L71571 76265
L71543 76209
L71543 75984
L71571 75928
L71627 75899
L71740 75899
L71796 75928
L71824 75984
L71824 76040
L71543 76096
" />
<path d="M72077 76237
L72105 76265
L72077 76293
L72049 76265
L72077 76237
L72077 76293
" />
<path d="M72077 75928
L72105 75956
L72077 75984
L72049 75956
L72077 75928
L72077 75984
" />
<path d="M72780 76124
L73061 76124
" />
<path d="M72724 76293
L72921 75703
L73118 76293
" />
<path d="M73568 75899
L73568 76293
" />
<path d="M73427 75674
L73286 76096
L73652 76096
" />
</g>
<g style="fill:#000000; fill-opacity:0.0; 
stroke:#000000; stroke-width:39.3701; stroke-opacity:1; 
stroke-linecap:round; stroke-linejoin:round;">
</g>
<g style="fill:#000000; fill-opacity:0.0; 
stroke:#000000; stroke-width:59.0551; stroke-opacity:1; 
stroke-linecap:round; stroke-linejoin:round;">
<path d="M103714 77395
L103714 76805
" />
<path d="M104248 77395
L104248 76805
" />
<path d="M104248 77367
L104192 77395
L104079 77395
L104023 77367
L103995 77339
L103967 77283
L103967 77114
L103995 77058
L104023 77030
L104079 77002
L104192 77002
L104248 77030
" />
<path d="M104529 77339
L104557 77367
L104529 77395
L104501 77367
L104529 77339
L104529 77395
" />
<path d="M104529 77030
L104557 77058
L104529 77086
L104501 77058
L104529 77030
L104529 77086
" />
<path d="M105570 77395
L105232 77395
" />
<path d="M105401 77395
L105401 76805
L105345 76889
L105289 76946
L105232 76974
" />
<path d="M106245 76777
L105739 77536
" />
<path d="M106751 77395
L106413 77395
" />
<path d="M106582 77395
L106582 76805
L106526 76889
L106470 76946
L106413 76974
" />
</g>
<g style="fill:#000000; fill-opacity:0.0; 
stroke:#000000; stroke-width:39.3701; stroke-opacity:1; 
stroke-linecap:round; stroke-linejoin:round;">
</g>
<g style="fill:#000000; fill-opacity:0.0; 
stroke:#000000; stroke-width:59.0551; stroke-opacity:1; 
stroke-linecap:round; stroke-linejoin:round;">
<path d="M69685 73821
L112205 73821
" />
</g>
<g style="fill:#000000; fill-opacity:0.0; 
stroke:#000000; stroke-width:39.3701; stroke-opacity:1; 
stroke-linecap:round; stroke-linejoin:round;">
</g>
<g style="fill:#000000; fill-opacity:0.0; 
stroke:#000000; stroke-width:157.48; stroke-opacity:1; 
stroke-linecap:round; stroke-linejoin:round;">
<path d="M70360 74099
L70810 74099
" />
<path d="M70486 74886
L70585 74099
" />
<path d="M70974 74886
L71039 74361
" />
<path d="M71072 74099
L71030 74136
L71063 74174
L71105 74136
L71072 74099
L71063 74174
" />
<path d="M71302 74361
L71602 74361
" />
<path d="M71447 74099
L71363 74774
L71391 74849
L71461 74886
L71536 74886
" />
<path d="M71911 74886
L71841 74849
L71813 74774
L71897 74099
" />
<path d="M72516 74849
L72436 74886
L72286 74886
L72216 74849
L72187 74774
L72225 74474
L72272 74399
L72352 74361
L72501 74361
L72572 74399
L72600 74474
L72591 74549
L72206 74624
" />
<path d="M72895 74811
L72928 74849
L72886 74886
L72853 74849
L72895 74811
L72886 74886
" />
<path d="M72947 74399
L72980 74436
L72937 74474
L72905 74436
L72947 74399
L72937 74474
" />
</g>
<g style="fill:#000000; fill-opacity:0.0; 
stroke:#000000; stroke-width:39.3701; stroke-opacity:1; 
stroke-linecap:round; stroke-linejoin:round;">
</g>
<g style="fill:#000000; fill-opacity:0.0; 
stroke:#000000; stroke-width:59.0551; stroke-opacity:1; 
stroke-linecap:round; stroke-linejoin:round;">
<path d="M70446 73070
L70249 73070
" />
<path d="M70249 73380
L70249 72789
L70530 72789
" />
<path d="M70755 73380
L70755 72986
" />
<path d="M70755 72789
L70727 72817
L70755 72845
L70784 72817
L70755 72789
L70755 72845
" />
<path d="M71121 73380
L71065 73352
L71037 73295
L71037 72789
" />
<path d="M71571 73352
L71515 73380
L71402 73380
L71346 73352
L71318 73295
L71318 73070
L71346 73014
L71402 72986
L71515 72986
L71571 73014
L71599 73070
L71599 73127
L71318 73183
" />
<path d="M71852 73323
L71880 73352
L71852 73380
L71824 73352
L71852 73323
L71852 73380
" />
<path d="M71852 73014
L71880 73042
L71852 73070
L71824 73042
L71852 73014
L71852 73070
" />
<path d="M72583 73380
L72583 72789
L72808 72789
L72865 72817
L72893 72845
L72921 72902
L72921 72986
L72893 73042
L72865 73070
L72808 73099
L72583 73099
" />
<path d="M73174 73380
L73174 72986
" />
<path d="M73174 73099
L73202 73042
L73230 73014
L73286 72986
L73343 72986
" />
<path d="M73793 73380
L73793 73070
L73764 73014
L73708 72986
L73596 72986
L73539 73014
" />
<path d="M73793 73352
L73736 73380
L73596 73380
L73539 73352
L73511 73295
L73511 73239
L73539 73183
L73596 73155
L73736 73155
L73793 73127
" />
<path d="M74327 73352
L74271 73380
L74158 73380
L74102 73352
L74074 73323
L74046 73267
L74046 73099
L74074 73042
L74102 73014
L74158 72986
L74271 72986
L74327 73014
" />
<path d="M74496 72986
L74721 72986
" />
<path d="M74580 72789
L74580 73295
L74608 73352
L74664 73380
L74721 73380
" />
<path d="M74917 73380
L74917 72986
" />
<path d="M74917 72789
L74889 72817
L74917 72845
L74946 72817
L74917 72789
L74917 72845
" />
<path d="M75452 73352
L75395 73380
L75283 73380
L75227 73352
L75199 73323
L75171 73267
L75171 73099
L75199 73042
L75227 73014
L75283 72986
L75395 72986
L75452 73014
" />
<path d="M75958 73380
L75958 73070
L75930 73014
L75874 72986
L75761 72986
L75705 73014
" />
<path d="M75958 73352
L75902 73380
L75761 73380
L75705 73352
L75677 73295
L75677 73239
L75705 73183
L75761 73155
L75902 73155
L75958 73127
" />
<path d="M76998 73380
L76661 73380
" />
<path d="M76830 73380
L76830 72789
L76773 72874
L76717 72930
L76661 72958
" />
<path d="M77701 73380
L77701 72986
" />
<path d="M77701 73099
L77730 73042
L77758 73014
L77814 72986
L77870 72986
" />
<path d="M78292 73352
L78236 73380
L78123 73380
L78067 73352
L78039 73295
L78039 73070
L78067 73014
L78123 72986
L78236 72986
L78292 73014
L78320 73070
L78320 73127
L78039 73183
" />
<path d="M78826 72986
L78826 73464
L78798 73520
L78770 73548
L78714 73577
L78629 73577
L78573 73548
" />
<path d="M78826 73352
L78770 73380
L78658 73380
L78601 73352
L78573 73323
L78545 73267
L78545 73099
L78573 73042
L78601 73014
L78658 72986
L78770 72986
L78826 73014
" />
<path d="M79361 72986
L79361 73380
" />
<path d="M79108 72986
L79108 73295
L79136 73352
L79192 73380
L79276 73380
L79332 73352
L79361 73323
" />
<path d="M79726 73380
L79670 73352
L79642 73295
L79642 72789
" />
<path d="M80204 73380
L80204 73070
L80176 73014
L80120 72986
L80007 72986
L79951 73014
" />
<path d="M80204 73352
L80148 73380
L80007 73380
L79951 73352
L79923 73295
L79923 73239
L79951 73183
L80007 73155
L80148 73155
L80204 73127
" />
<path d="M80739 73380
L80739 72789
" />
<path d="M80739 73352
L80682 73380
L80570 73380
L80514 73352
L80485 73323
L80457 73267
L80457 73099
L80485 73042
L80514 73014
L80570 72986
L80682 72986
L80739 73014
" />
<path d="M81104 73380
L81048 73352
L81020 73323
L80992 73267
L80992 73099
L81020 73042
L81048 73014
L81104 72986
L81188 72986
L81245 73014
L81273 73042
L81301 73099
L81301 73267
L81273 73323
L81245 73352
L81188 73380
L81104 73380
" />
<path d="M81554 73380
L81554 72986
" />
<path d="M81554 73099
L81582 73042
L81610 73014
L81667 72986
L81723 72986
" />
<path d="M82623 73380
L82623 72789
" />
<path d="M82623 73352
L82566 73380
L82454 73380
L82398 73352
L82370 73323
L82341 73267
L82341 73099
L82370 73042
L82398 73014
L82454 72986
L82566 72986
L82623 73014
" />
<path d="M83129 73352
L83073 73380
L82960 73380
L82904 73352
L82876 73295
L82876 73070
L82904 73014
L82960 72986
L83073 72986
L83129 73014
L83157 73070
L83157 73127
L82876 73183
" />
<path d="M83804 72986
L83944 73380
L84085 72986
" />
<path d="M84394 73380
L84338 73352
L84310 73323
L84282 73267
L84282 73099
L84310 73042
L84338 73014
L84394 72986
L84479 72986
L84535 73014
L84563 73042
L84591 73099
L84591 73267
L84563 73323
L84535 73352
L84479 73380
L84394 73380
" />
<path d="M84929 73380
L84872 73352
L84844 73295
L84844 72789
" />
<path d="M85069 72986
L85294 72986
" />
<path d="M85154 72789
L85154 73295
L85182 73352
L85238 73380
L85294 73380
" />
<path d="M85744 73380
L85744 73070
L85716 73014
L85660 72986
L85547 72986
L85491 73014
" />
<path d="M85744 73352
L85688 73380
L85547 73380
L85491 73352
L85463 73295
L85463 73239
L85491 73183
L85547 73155
L85688 73155
L85744 73127
" />
<path d="M86025 72986
L86025 73492
L85997 73548
L85941 73577
L85913 73577
" />
<path d="M86025 72789
L85997 72817
L86025 72845
L86054 72817
L86025 72789
L86025 72845
" />
<path d="M86532 73352
L86475 73380
L86363 73380
L86307 73352
L86278 73295
L86278 73070
L86307 73014
L86363 72986
L86475 72986
L86532 73014
L86560 73070
L86560 73127
L86278 73183
" />
<path d="M87178 72986
L87403 72986
" />
<path d="M87263 72789
L87263 73295
L87291 73352
L87347 73380
L87403 73380
" />
<path d="M87600 72986
L87600 73577
" />
<path d="M87600 73014
L87656 72986
L87769 72986
L87825 73014
L87853 73042
L87881 73099
L87881 73267
L87853 73323
L87825 73352
L87769 73380
L87656 73380
L87600 73352
" />
<path d="M88106 73352
L88163 73380
L88275 73380
L88331 73352
L88359 73295
L88359 73267
L88331 73211
L88275 73183
L88191 73183
L88135 73155
L88106 73099
L88106 73070
L88135 73014
L88191 72986
L88275 72986
L88331 73014
" />
<path d="M88894 72789
L88613 72789
L88584 73070
L88613 73042
L88669 73014
L88809 73014
L88866 73042
L88894 73070
L88922 73127
L88922 73267
L88894 73323
L88866 73352
L88809 73380
L88669 73380
L88613 73352
L88584 73323
" />
<path d="M89428 72789
L89316 72789
L89259 72817
L89231 72845
L89175 72930
L89147 73042
L89147 73267
L89175 73323
L89203 73352
L89259 73380
L89372 73380
L89428 73352
L89456 73323
L89484 73267
L89484 73127
L89456 73070
L89428 73042
L89372 73014
L89259 73014
L89203 73042
L89175 73070
L89147 73127
" />
<path d="M89681 72789
L90047 72789
L89850 73014
L89934 73014
L89991 73042
L90019 73070
L90047 73127
L90047 73267
L90019 73323
L89991 73352
L89934 73380
L89766 73380
L89709 73352
L89681 73323
" />
<path d="M90272 72845
L90300 72817
L90356 72789
L90497 72789
L90553 72817
L90581 72845
L90609 72902
L90609 72958
L90581 73042
L90244 73380
L90609 73380
" />
<path d="M90975 72789
L91031 72789
L91087 72817
L91115 72845
L91144 72902
L91172 73014
L91172 73155
L91144 73267
L91115 73323
L91087 73352
L91031 73380
L90975 73380
L90919 73352
L90890 73323
L90862 73267
L90834 73155
L90834 73014
L90862 72902
L90890 72845
L90919 72817
L90975 72789
" />
<path d="M91537 72789
L91593 72789
L91650 72817
L91678 72845
L91706 72902
L91734 73014
L91734 73155
L91706 73267
L91678 73323
L91650 73352
L91593 73380
L91537 73380
L91481 73352
L91453 73323
L91425 73267
L91397 73155
L91397 73014
L91425 72902
L91453 72845
L91481 72817
L91537 72789
" />
<path d="M91987 73323
L92015 73352
L91987 73380
L91959 73352
L91987 73323
L91987 73380
" />
<path d="M92268 73380
L92268 72789
" />
<path d="M92325 73155
L92493 73380
" />
<path d="M92493 72986
L92268 73211
" />
<path d="M92746 73380
L92746 72986
" />
<path d="M92746 72789
L92718 72817
L92746 72845
L92775 72817
L92746 72789
L92746 72845
" />
<path d="M93281 73352
L93224 73380
L93112 73380
L93056 73352
L93028 73323
L93000 73267
L93000 73099
L93028 73042
L93056 73014
L93112 72986
L93224 72986
L93281 73014
" />
<path d="M93787 73380
L93787 73070
L93759 73014
L93703 72986
L93590 72986
L93534 73014
" />
<path d="M93787 73352
L93731 73380
L93590 73380
L93534 73352
L93506 73295
L93506 73239
L93534 73183
L93590 73155
L93731 73155
L93787 73127
" />
<path d="M94321 73380
L94321 72789
" />
<path d="M94321 73352
L94265 73380
L94153 73380
L94096 73352
L94068 73323
L94040 73267
L94040 73099
L94068 73042
L94096 73014
L94153 72986
L94265 72986
L94321 73014
" />
<path d="M94462 73436
L94912 73436
" />
<path d="M95052 72986
L95052 73577
" />
<path d="M95052 73014
L95109 72986
L95221 72986
L95277 73014
L95305 73042
L95334 73099
L95334 73267
L95305 73323
L95277 73352
L95221 73380
L95109 73380
L95052 73352
" />
<path d="M95840 73352
L95784 73380
L95671 73380
L95615 73352
L95587 73323
L95559 73267
L95559 73099
L95587 73042
L95615 73014
L95671 72986
L95784 72986
L95840 73014
" />
<path d="M96093 73380
L96093 72789
" />
<path d="M96093 73014
L96149 72986
L96262 72986
L96318 73014
L96346 73042
L96374 73099
L96374 73267
L96346 73323
L96318 73352
L96262 73380
L96149 73380
L96093 73352
" />
</g>
<g style="fill:#000000; fill-opacity:0.0; 
stroke:#000000; stroke-width:39.3701; stroke-opacity:1; 
stroke-linecap:round; stroke-linejoin:round;">
</g>
<g style="fill:#000000; fill-opacity:0.0; 
stroke:#000000; stroke-width:59.0551; stroke-opacity:1; 
stroke-linecap:round; stroke-linejoin:round;">
<path d="M69685 71459
L112205 71459
" />
</g>
<g style="fill:#000000; fill-opacity:0.0; 
stroke:#000000; stroke-width:39.3701; stroke-opacity:1; 
stroke-linecap:round; stroke-linejoin:round;">
</g>
<g style="fill:#000000; fill-opacity:0.0; 
stroke:#000000; stroke-width:59.0551; stroke-opacity:1; 
stroke-linecap:round; stroke-linejoin:round;">
<path d="M70221 72289
L70305 72317
L70446 72317
L70502 72289
L70530 72260
L70559 72204
L70559 72148
L70530 72092
L70502 72064
L70446 72036
L70334 72007
L70277 71979
L70249 71951
L70221 71895
L70221 71839
L70249 71782
L70277 71754
L70334 71726
L70474 71726
L70559 71754
" />
<path d="M70812 72317
L70812 71726
" />
<path d="M71065 72317
L71065 72007
L71037 71951
L70980 71923
L70896 71923
L70840 71951
L70812 71979
" />
<path d="M71571 72289
L71515 72317
L71402 72317
L71346 72289
L71318 72232
L71318 72007
L71346 71951
L71402 71923
L71515 71923
L71571 71951
L71599 72007
L71599 72064
L71318 72120
" />
<path d="M72077 72289
L72021 72317
L71908 72317
L71852 72289
L71824 72232
L71824 72007
L71852 71951
L71908 71923
L72021 71923
L72077 71951
L72105 72007
L72105 72064
L71824 72120
" />
<path d="M72274 71923
L72499 71923
" />
<path d="M72358 71726
L72358 72232
L72386 72289
L72443 72317
L72499 72317
" />
<path d="M72696 72260
L72724 72289
L72696 72317
L72668 72289
L72696 72260
L72696 72317
" />
<path d="M72696 71951
L72724 71979
L72696 72007
L72668 71979
L72696 71951
L72696 72007
" />
</g>
<g style="fill:#000000; fill-opacity:0.0; 
stroke:#000000; stroke-width:39.3701; stroke-opacity:1; 
stroke-linecap:round; stroke-linejoin:round;">
</g>
<g style="fill:#000000; fill-opacity:0.0; 
stroke:#000000; stroke-width:59.0551; stroke-opacity:1; 
stroke-linecap:round; stroke-linejoin:round;">
<path d="M77559 75396
L77559 76577
" />
</g>
<g style="fill:#000000; fill-opacity:0.0; 
stroke:#000000; stroke-width:39.3701; stroke-opacity:1; 
stroke-linecap:round; stroke-linejoin:round;">
</g>
<g style="fill:#000000; fill-opacity:0.0; 
stroke:#000000; stroke-width:59.0551; stroke-opacity:1; 
stroke-linecap:round; stroke-linejoin:round;">
<path d="M102756 75396
L102756 77955
" />
</g>
<g style="fill:#848400; fill-opacity:0.0; 
stroke:#848400; stroke-width:59.0551; stroke-opacity:1; 
stroke-linecap:round; stroke-linejoin:round;">
</g>
<g style="fill:#848400; fill-opacity:1.0; 
stroke:#848400; stroke-width:0; stroke-opacity:1; 
stroke-linecap:round; stroke-linejoin:round;">
<circle cx="46456.7" cy="37204.7" r="511.811" /> 
</g>
<g style="fill:#848400; fill-opacity:1.0; 
stroke:#848400; stroke-width:39.3701; stroke-opacity:1; 
stroke-linecap:round; stroke-linejoin:round;">
</g>
<g style="fill:#848400; fill-opacity:1.0; 
stroke:#848400; stroke-width:0; stroke-opacity:1; 
stroke-linecap:round; stroke-linejoin:round;">
<polyline style="fill-rule:evenodd;"
points="45944,34692
46968,34692
46968,35716
45944,35716
45944,34692
" /> 
<polyline style="fill-rule:evenodd;"
points="60905,34704
61929,34704
61929,35728
60905,35728
60905,34704
" /> 
<circle cx="61417.3" cy="37216.5" r="511.811" /> 
</g>
<g style="fill:#848400; fill-opacity:1.0; 
stroke:#848400; stroke-width:39.3701; stroke-opacity:1; 
stroke-linecap:round; stroke-linejoin:round;">
</g>
<g style="fill:#840000; fill-opacity:1.0; 
stroke:#840000; stroke-width:39.3701; stroke-opacity:1; 
stroke-linecap:round; stroke-linejoin:round;">
</g>
<g style="fill:#840000; fill-opacity:1.0; 
stroke:#840000; stroke-width:0; stroke-opacity:1; 
stroke-linecap:round; stroke-linejoin:round;">
<polyline style="fill-rule:evenodd;"
points="50964,33017
50973,33018
50983,33020
50992,33024
51001,33028
51009,33033
51017,33039
51024,33045
51030,33052
51036,33060
51041,33068
51045,33077
51048,33086
51051,33095
51052,33105
51053,33115
51053,33479
51052,33488
51051,33498
51048,33507
51045,33516
51041,33525
51036,33534
51030,33541
51024,33548
51017,33555
51009,33561
51001,33566
50992,33570
50983,33573
50973,33575
50964,33577
50954,33577
50108,33577
50098,33577
50089,33575
50079,33573
50070,33570
50061,33566
50053,33561
50045,33555
50038,33548
50032,33541
50026,33534
50021,33525
50017,33516
50014,33507
50011,33498
50010,33488
50009,33479
50009,33115
50010,33105
50011,33095
50014,33086
50017,33077
50021,33068
50026,33060
50032,33052
50038,33045
50045,33039
50053,33033
50061,33028
50070,33024
50079,33020
50089,33018
50098,33017
50108,33016
50954,33016
50964,33017
" /> 
<polyline style="fill-rule:evenodd;"
points="50964,34188
50973,34189
50983,34192
50992,34195
51001,34199
51009,34204
51017,34210
51024,34216
51030,34223
51036,34231
51041,34240
51045,34248
51048,34257
51051,34267
51052,34276
51053,34286
51053,34650
51052,34660
51051,34669
51048,34679
51045,34688
51041,34696
51036,34705
51030,34713
51024,34720
51017,34726
51009,34732
51001,34737
50992,34741
50983,34744
50973,34747
50964,34748
50954,34749
50108,34749
50098,34748
50089,34747
50079,34744
50070,34741
50061,34737
50053,34732
50045,34726
50038,34720
50032,34713
50026,34705
50021,34696
50017,34688
50014,34679
50011,34669
50010,34660
50009,34650
50009,34286
50010,34276
50011,34267
50014,34257
50017,34248
50021,34240
50026,34231
50032,34223
50038,34216
50045,34210
50053,34204
50061,34199
50070,34195
50079,34192
50089,34189
50098,34188
50108,34187
50954,34187
50964,34188
" /> 
<polyline style="fill-rule:evenodd;"
points="50964,35571
50973,35572
50983,35575
50992,35578
51001,35582
51009,35587
51017,35593
51024,35599
51030,35606
51036,35614
51041,35622
51045,35631
51048,35640
51051,35650
51052,35659
51053,35669
51053,36033
51052,36043
51051,36052
51048,36062
51045,36071
51041,36079
51036,36088
51030,36095
51024,36103
51017,36109
51009,36115
51001,36120
50992,36124
50983,36127
50973,36129
50964,36131
50954,36131
50108,36131
50098,36131
50089,36129
50079,36127
50070,36124
50061,36120
50053,36115
50045,36109
50038,36103
50032,36095
50026,36088
50021,36079
50017,36071
50014,36062
50011,36052
50010,36043
50009,36033
50009,35669
50010,35659
50011,35650
50014,35640
50017,35631
50021,35622
50026,35614
50032,35606
50038,35599
50045,35593
50053,35587
50061,35582
50070,35578
50079,35575
50089,35572
50098,35571
50108,35570
50954,35570
50964,35571
" /> 
<polyline style="fill-rule:evenodd;"
points="50964,36742
50973,36744
50983,36746
50992,36749
51001,36753
51009,36758
51017,36764
51024,36770
51030,36778
51036,36785
51041,36794
51045,36802
51048,36811
51051,36821
51052,36830
51053,36840
51053,37204
51052,37214
51051,37223
51048,37233
51045,37242
51041,37251
51036,37259
51030,37267
51024,37274
51017,37280
51009,37286
51001,37291
50992,37295
50983,37298
50973,37301
50964,37302
50954,37303
50108,37303
50098,37302
50089,37301
50079,37298
50070,37295
50061,37291
50053,37286
50045,37280
50038,37274
50032,37267
50026,37259
50021,37251
50017,37242
50014,37233
50011,37223
50010,37214
50009,37204
50009,36840
50010,36830
50011,36821
50014,36811
50017,36802
50021,36794
50026,36785
50032,36778
50038,36770
50045,36764
50053,36758
50061,36753
50070,36749
50079,36746
50089,36744
50098,36742
50108,36742
50954,36742
50964,36742
" /> 
<polyline style="fill-rule:evenodd;"
points="50964,39247
50973,39248
50983,39251
50992,39254
51001,39258
51009,39263
51017,39269
51024,39275
51030,39283
51036,39290
51041,39299
51045,39307
51048,39316
51051,39326
51052,39335
51053,39345
51053,39709
51052,39719
51051,39728
51048,39738
51045,39747
51041,39756
51036,39764
51030,39772
51024,39779
51017,39785
51009,39791
51001,39796
50992,39800
50983,39803
50973,39806
50964,39807
50954,39808
50108,39808
50098,39807
50089,39806
50079,39803
50070,39800
50061,39796
50053,39791
50045,39785
50038,39779
50032,39772
50026,39764
50021,39756
50017,39747
50014,39738
50011,39728
50010,39719
50009,39709
50009,39345
50010,39335
50011,39326
50014,39316
50017,39307
50021,39299
50026,39290
50032,39283
50038,39275
50045,39269
50053,39263
50061,39258
50070,39254
50079,39251
50089,39248
50098,39247
50108,39247
50954,39247
50964,39247
" /> 
<polyline style="fill-rule:evenodd;"
points="50964,38076
50973,38077
50983,38080
50992,38083
51001,38087
51009,38092
51017,38098
51024,38104
51030,38111
51036,38119
51041,38127
51045,38136
51048,38145
51051,38155
51052,38164
51053,38174
51053,38538
51052,38548
51051,38557
51048,38566
51045,38576
51041,38584
51036,38593
51030,38600
51024,38607
51017,38614
51009,38620
51001,38625
50992,38629
50983,38632
50973,38634
50964,38636
50954,38636
50108,38636
50098,38636
50089,38634
50079,38632
50070,38629
50061,38625
50053,38620
50045,38614
50038,38607
50032,38600
50026,38593
50021,38584
50017,38576
50014,38566
50011,38557
50010,38548
50009,38538
50009,38174
50010,38164
50011,38155
50014,38145
50017,38136
50021,38127
50026,38119
50032,38111
50038,38104
50045,38098
50053,38092
50061,38087
50070,38083
50079,38080
50089,38077
50098,38076
50108,38075
50954,38075
50964,38076
" /> 
<polyline style="fill-rule:evenodd;"
points="52598,32884
52607,32885
52617,32888
52626,32891
52634,32895
52643,32900
52651,32906
52658,32912
52664,32919
52670,32927
52675,32935
52679,32944
52682,32953
52685,32963
52686,32972
52687,32982
52687,33828
52686,33838
52685,33847
52682,33857
52679,33866
52675,33875
52670,33883
52664,33891
52658,33898
52651,33904
52643,33910
52634,33915
52626,33919
52617,33922
52607,33925
52598,33926
52588,33927
52224,33927
52214,33926
52205,33925
52195,33922
52186,33919
52178,33915
52169,33910
52161,33904
52154,33898
52148,33891
52142,33883
52137,33875
52133,33866
52130,33857
52127,33847
52126,33838
52125,33828
52125,32982
52126,32972
52127,32963
52130,32953
52133,32944
52137,32935
52142,32927
52148,32919
52154,32912
52161,32906
52169,32900
52178,32895
52186,32891
52195,32888
52205,32885
52214,32884
52224,32883
52588,32883
52598,32884
" /> 
<polyline style="fill-rule:evenodd;"
points="53769,32884
53779,32885
53788,32888
53797,32891
53806,32895
53814,32900
53822,32906
53829,32912
53835,32919
53841,32927
53846,32935
53850,32944
53854,32953
53856,32963
53857,32972
53858,32982
53858,33828
53857,33838
53856,33847
53854,33857
53850,33866
53846,33875
53841,33883
53835,33891
53829,33898
53822,33904
53814,33910
53806,33915
53797,33919
53788,33922
53779,33925
53769,33926
53759,33927
53395,33927
53386,33926
53376,33925
53367,33922
53358,33919
53349,33915
53340,33910
53333,33904
53326,33898
53319,33891
53313,33883
53308,33875
53304,33866
53301,33857
53299,33847
53297,33838
53297,33828
53297,32982
53297,32972
53299,32963
53301,32953
53304,32944
53308,32935
53313,32927
53319,32919
53326,32912
53333,32906
53340,32900
53349,32895
53358,32891
53367,32888
53376,32885
53386,32884
53395,32883
53759,32883
53769,32884
" /> 
<polyline style="fill-rule:evenodd;"
points="57795,35226
57804,35228
57814,35230
57823,35233
57831,35238
57840,35242
57847,35248
57855,35255
57861,35262
57867,35270
57872,35278
57876,35287
57879,35296
57881,35305
57883,35315
57883,35324
57883,35688
57883,35698
57881,35708
57879,35717
57876,35726
57872,35735
57867,35743
57861,35751
57855,35758
57847,35765
57840,35770
57831,35775
57823,35779
57814,35783
57804,35785
57795,35786
57785,35787
56938,35787
56929,35786
56919,35785
56910,35783
56901,35779
56892,35775
56884,35770
56876,35765
56869,35758
56862,35751
56857,35743
56852,35735
56848,35726
56844,35717
56842,35708
56841,35698
56840,35688
56840,35324
56841,35315
56842,35305
56844,35296
56848,35287
56852,35278
56857,35270
56862,35262
56869,35255
56876,35248
56884,35242
56892,35238
56901,35233
56910,35230
56919,35228
56929,35226
56938,35226
57785,35226
57795,35226
" /> 
<polyline style="fill-rule:evenodd;"
points="57795,34055
57804,34057
57814,34059
57823,34062
57831,34066
57840,34071
57847,34077
57855,34083
57861,34091
57867,34098
57872,34107
57876,34115
57879,34124
57881,34134
57883,34143
57883,34153
57883,34517
57883,34527
57881,34536
57879,34546
57876,34555
57872,34564
57867,34572
57861,34580
57855,34587
57847,34593
57840,34599
57831,34604
57823,34608
57814,34611
57804,34614
57795,34615
57785,34616
56938,34616
56929,34615
56919,34614
56910,34611
56901,34608
56892,34604
56884,34599
56876,34593
56869,34587
56862,34580
56857,34572
56852,34564
56848,34555
56844,34546
56842,34536
56841,34527
56840,34517
56840,34153
56841,34143
56842,34134
56844,34124
56848,34115
56852,34107
56857,34098
56862,34091
56869,34083
56876,34077
56884,34071
56892,34066
56901,34062
56910,34059
56919,34057
56929,34055
56938,34055
57785,34055
57795,34055
" /> 
<polyline style="fill-rule:evenodd;"
points="57795,36535
57804,36537
57814,36539
57823,36542
57831,36547
57840,36552
57847,36557
57855,36564
57861,36571
57867,36579
57872,36587
57876,36596
57879,36605
57881,36614
57883,36624
57883,36633
57883,36998
57883,37007
57881,37017
57879,37026
57876,37035
57872,37044
57867,37052
57861,37060
57855,37067
57847,37074
57840,37079
57831,37084
57823,37088
57814,37092
57804,37094
57795,37095
57785,37096
56938,37096
56929,37095
56919,37094
56910,37092
56901,37088
56892,37084
56884,37079
56876,37074
56869,37067
56862,37060
56857,37052
56852,37044
56848,37035
56844,37026
56842,37017
56841,37007
56840,36998
56840,36633
56841,36624
56842,36614
56844,36605
56848,36596
56852,36587
56857,36579
56862,36571
56869,36564
56876,36557
56884,36552
56892,36547
56901,36542
56910,36539
56919,36537
56929,36535
56938,36535
57785,36535
57795,36535
" /> 
<polyline style="fill-rule:evenodd;"
points="57795,37707
57804,37708
57814,37710
57823,37714
57831,37718
57840,37723
57847,37729
57855,37735
57861,37742
57867,37750
57872,37758
57876,37767
57879,37776
57881,37785
57883,37795
57883,37805
57883,38169
57883,38178
57881,38188
57879,38197
57876,38206
57872,38215
57867,38223
57861,38231
57855,38238
57847,38245
57840,38251
57831,38256
57823,38260
57814,38263
57804,38265
57795,38267
57785,38267
56938,38267
56929,38267
56919,38265
56910,38263
56901,38260
56892,38256
56884,38251
56876,38245
56869,38238
56862,38231
56857,38223
56852,38215
56848,38206
56844,38197
56842,38188
56841,38178
56840,38169
56840,37805
56841,37795
56842,37785
56844,37776
56848,37767
56852,37758
56857,37750
56862,37742
56869,37735
56876,37729
56884,37723
56892,37718
56901,37714
56910,37710
56919,37708
56929,37707
56938,37706
57785,37706
57795,37707
" /> 
<polyline style="fill-rule:evenodd;"
points="55974,32884
55983,32885
55993,32888
56002,32891
56010,32895
56019,32900
56027,32906
56034,32912
56040,32919
56046,32927
56051,32935
56055,32944
56058,32953
56061,32963
56062,32972
56062,32982
56062,33828
56062,33838
56061,33847
56058,33857
56055,33866
56051,33875
56046,33883
56040,33891
56034,33898
56027,33904
56019,33910
56010,33915
56002,33919
55993,33922
55983,33925
55974,33926
55964,33927
55600,33927
55590,33926
55581,33925
55571,33922
55562,33919
55553,33915
55545,33910
55537,33904
55530,33898
55524,33891
55518,33883
55513,33875
55509,33866
55506,33857
55503,33847
55502,33838
55501,33828
55501,32982
55502,32972
55503,32963
55506,32953
55509,32944
55513,32935
55518,32927
55524,32919
55530,32912
55537,32906
55545,32900
55553,32895
55562,32891
55571,32888
55581,32885
55590,32884
55600,32883
55964,32883
55974,32884
" /> 
<polyline style="fill-rule:evenodd;"
points="54802,32884
54812,32885
54821,32888
54830,32891
54839,32895
54847,32900
54855,32906
54862,32912
54869,32919
54875,32927
54880,32935
54884,32944
54887,32953
54889,32963
54891,32972
54891,32982
54891,33828
54891,33838
54889,33847
54887,33857
54884,33866
54880,33875
54875,33883
54869,33891
54862,33898
54855,33904
54847,33910
54839,33915
54830,33919
54821,33922
54812,33925
54802,33926
54793,33927
54429,33927
54419,33926
54409,33925
54400,33922
54391,33919
54382,33915
54374,33910
54366,33904
54359,33898
54353,33891
54347,33883
54342,33875
54338,33866
54334,33857
54332,33847
54331,33838
54330,33828
54330,32982
54331,32972
54332,32963
54334,32953
54338,32944
54342,32935
54347,32927
54353,32919
54359,32912
54366,32906
54374,32900
54382,32895
54391,32891
54400,32888
54409,32885
54419,32884
54429,32883
54793,32883
54802,32884
" /> 
<polyline style="fill-rule:evenodd;"
points="54802,38218
54812,38220
54821,38222
54830,38225
54839,38230
54847,38235
54855,38240
54862,38247
54869,38254
54875,38262
54880,38270
54884,38279
54887,38288
54889,38297
54891,38307
54891,38316
54891,39163
54891,39173
54889,39182
54887,39191
54884,39201
54880,39209
54875,39218
54869,39225
54862,39232
54855,39239
54847,39245
54839,39250
54830,39254
54821,39257
54812,39259
54802,39261
54793,39261
54429,39261
54419,39261
54409,39259
54400,39257
54391,39254
54382,39250
54374,39245
54366,39239
54359,39232
54353,39225
54347,39218
54342,39209
54338,39201
54334,39191
54332,39182
54331,39173
54330,39163
54330,38316
54331,38307
54332,38297
54334,38288
54338,38279
54342,38270
54347,38262
54353,38254
54359,38247
54366,38240
54374,38235
54382,38230
54391,38225
54400,38222
54409,38220
54419,38218
54429,38218
54793,38218
54802,38218
" /> 
<polyline style="fill-rule:evenodd;"
points="55974,38218
55983,38220
55993,38222
56002,38225
56010,38230
56019,38235
56027,38240
56034,38247
56040,38254
56046,38262
56051,38270
56055,38279
56058,38288
56061,38297
56062,38307
56062,38316
56062,39163
56062,39173
56061,39182
56058,39191
56055,39201
56051,39209
56046,39218
56040,39225
56034,39232
56027,39239
56019,39245
56010,39250
56002,39254
55993,39257
55983,39259
55974,39261
55964,39261
55600,39261
55590,39261
55581,39259
55571,39257
55562,39254
55553,39250
55545,39245
55537,39239
55530,39232
55524,39225
55518,39218
55513,39209
55509,39201
55506,39191
55503,39182
55502,39173
55501,39163
55501,38316
55502,38307
55503,38297
55506,38288
55509,38279
55513,38270
55518,38262
55524,38254
55530,38247
55537,38240
55545,38235
55553,38230
55562,38225
55571,38222
55581,38220
55590,38218
55600,38218
55964,38218
55974,38218
" /> 
<polyline style="fill-rule:evenodd;"
points="52598,38218
52607,38220
52617,38222
52626,38225
52634,38230
52643,38235
52651,38240
52658,38247
52664,38254
52670,38262
52675,38270
52679,38279
52682,38288
52685,38297
52686,38307
52687,38316
52687,39163
52686,39173
52685,39182
52682,39191
52679,39201
52675,39209
52670,39218
52664,39225
52658,39232
52651,39239
52643,39245
52634,39250
52626,39254
52617,39257
52607,39259
52598,39261
52588,39261
52224,39261
52214,39261
52205,39259
52195,39257
52186,39254
52178,39250
52169,39245
52161,39239
52154,39232
52148,39225
52142,39218
52137,39209
52133,39201
52130,39191
52127,39182
52126,39173
52125,39163
52125,38316
52126,38307
52127,38297
52130,38288
52133,38279
52137,38270
52142,38262
52148,38254
52154,38247
52161,38240
52169,38235
52178,38230
52186,38225
52195,38222
52205,38220
52214,38218
52224,38218
52588,38218
52598,38218
" /> 
<polyline style="fill-rule:evenodd;"
points="53769,38218
53779,38220
53788,38222
53797,38225
53806,38230
53814,38235
53822,38240
53829,38247
53835,38254
53841,38262
53846,38270
53850,38279
53854,38288
53856,38297
53857,38307
53858,38316
53858,39163
53857,39173
53856,39182
53854,39191
53850,39201
53846,39209
53841,39218
53835,39225
53829,39232
53822,39239
53814,39245
53806,39250
53797,39254
53788,39257
53779,39259
53769,39261
53759,39261
53395,39261
53386,39261
53376,39259
53367,39257
53358,39254
53349,39250
53340,39245
53333,39239
53326,39232
53319,39225
53313,39218
53308,39209
53304,39201
53301,39191
53299,39182
53297,39173
53297,39163
53297,38316
53297,38307
53299,38297
53301,38288
53304,38279
53308,38270
53313,38262
53319,38254
53326,38247
53333,38240
53340,38235
53349,38230
53358,38225
53367,38222
53376,38220
53386,38218
53395,38218
53759,38218
53769,38218
" /> 
<polyline style="fill-rule:evenodd;"
points="54161,36348
54161,36092
54775,36092
54775,36348
54161,36348
" /> 
<polyline style="fill-rule:evenodd;"
points="54161,35974
54161,35718
54775,35718
54775,35974
54161,35974
" /> 
<polyline style="fill-rule:evenodd;"
points="54161,36722
54161,36466
54775,36466
54775,36722
54161,36722
" /> 
<polyline style="fill-rule:evenodd;"
points="53098,36722
53098,36466
53712,36466
53712,36722
53098,36722
" /> 
<polyline style="fill-rule:evenodd;"
points="53098,36348
53098,36092
53712,36092
53712,36348
53098,36348
" /> 
<polyline style="fill-rule:evenodd;"
points="53098,35974
53098,35718
53712,35718
53712,35974
53098,35974
" /> 
</g>
<g style="fill:#BFBFBF; fill-opacity:1.0; 
stroke:#BFBFBF; stroke-width:0; stroke-opacity:1; 
stroke-linecap:round; stroke-linejoin:round;">
<circle cx="50531.5" cy="39527.6" r="157.48" /> 
</g>
<g style="fill:#BFBFBF; fill-opacity:1.0; 
stroke:#BFBFBF; stroke-width:39.3701; stroke-opacity:1; 
stroke-linecap:round; stroke-linejoin:round;">
</g>
<g style="fill:#840000; fill-opacity:1.0; 
stroke:#840000; stroke-width:39.3701; stroke-opacity:1; 
stroke-linecap:round; stroke-linejoin:round;">
</g>
<g style="fill:#840000; fill-opacity:1.0; 
stroke:#840000; stroke-width:98.4252; stroke-opacity:1; 
stroke-linecap:round; stroke-linejoin:round;">
</g>
<g style="fill:#840000; fill-opacity:0.0; 
stroke:#840000; stroke-width:98.4252; stroke-opacity:1; 
stroke-linecap:round; stroke-linejoin:round;">
<path d="M49970 34468
L49966 34472
" />
<path d="M50531 34468
L49970 34468
" />
<path d="M48921 34468
L50531 34468
" />
<path d="M47192 36196
L48921 34468
" />
<path d="M46456 37204
L46456 36433
" />
<path d="M46456 36433
L46692 36196
" />
<path d="M54185 36220
L54468 36220
" />
<path d="M53811 36594
L54185 36220
" />
<path d="M53405 36594
L53811 36594
" />
<path d="M50531 37022
L51560 37022
" />
<path d="M51560 37022
L51988 36594
" />
<path d="M51988 36594
L53405 36594
" />
<path d="M47027 36196
L47267 36196
" />
<path d="M47027 36196
L47192 36196
" />
<path d="M46692 36196
L47027 36196
" />
<path d="M50477 36968
L50531 37022
" />
<path d="M46456 37204
L48641 37204
" />
<path d="M48823 37022
L50531 37022
" />
<path d="M48641 37204
L48823 37022
" />
<path d="M49970 33297
L49960 33307
" />
<path d="M57362 34335
L57362 34881
" />
<path d="M57362 34881
L57992 34881
" />
<path d="M57992 34881
L58385 35275
" />
<path d="M58385 35866
L58070 36181
" />
<path d="M58070 36181
L57362 36181
" />
<path d="M57362 36181
L57362 36815
" />
<path d="M57362 36815
L56801 36815
" />
<path d="M50531 33297
L49970 33297
" />
<path d="M47411 33297
L50531 33297
" />
<path d="M46456 35204
L46456 34251
" />
<path d="M46456 34251
L47411 33297
" />
<path d="M61417 35216
L60098 35216
" />
<path d="M59763 35551
L58385 35551
" />
<path d="M60098 35216
L59763 35551
" />
<path d="M58385 35275
L58385 35551
" />
<path d="M58385 35551
L58385 35866
" />
<path d="M50531 33641
L50531 33297
" />
<path d="M50531 35374
L50807 35098
" />
<path d="M51338 34114
L51122 33897
" />
<path d="M50531 35851
L50531 35374
" />
<path d="M50787 33897
L50531 33641
" />
<path d="M51122 33897
L50787 33897
" />
<path d="M51338 34114
L51338 34822
" />
<path d="M51062 35098
L50807 35098
" />
<path d="M57362 36815
L57670 36507
" />
<path d="M51338 34822
L51062 35098
" />
<path d="M53577 37849
L53577 38740
" />
<path d="M53562 37834
L53577 37849
" />
<path d="M51889 37834
L53562 37834
" />
<path d="M51417 38307
L51889 37834
" />
<path d="M51368 38356
L51417 38307
" />
<path d="M50531 38356
L51368 38356
" />
<path d="M51574 39960
L51417 39803
" />
<path d="M61141 39960
L51574 39960
" />
<path d="M62559 36712
L62559 38543
" />
<path d="M57670 37124
L59722 37124
" />
<path d="M57362 36815
L57670 37124
" />
<path d="M62559 38543
L61141 39960
" />
<path d="M59722 37124
L60587 36259
" />
<path d="M60587 36259
L62106 36259
" />
<path d="M51417 39803
L51417 38307
" />
<path d="M62106 36259
L62559 36712
" />
<path d="M53405 35846
L52145 35846
" />
<path d="M51338 35039
L51338 34822
" />
<path d="M52145 35846
L51338 35039
" />
<path d="M53562 37401
L51594 37401
" />
<path d="M51594 37401
L51259 37736
" />
<path d="M51259 37736
L47519 37736
" />
<path d="M47519 37736
L46673 38582
" />
<path d="M46673 38582
L45531 38582
" />
<path d="M45531 38582
L45531 34192
" />
<path d="M45531 34192
L47106 32618
" />
<path d="M47106 32618
L51200 32618
" />
<path d="M51200 32618
L51712 33129
" />
<path d="M51712 33129
L51712 34704
" />
<path d="M51712 34704
L52244 35236
" />
<path d="M52244 35236
L53248 35236
" />
<path d="M53405 35393
L53405 35846
" />
<path d="M53248 35236
L53405 35393
" />
<path d="M53577 37416
L53577 38740
" />
<path d="M53562 37401
L53577 37416
" />
<path d="M54468 35620
L54468 35846
" />
<path d="M54988 35102
L54653 35102
" />
<path d="M53577 32621
L53690 32507
" />
<path d="M55031 32507
L55200 32677
" />
<path d="M54468 35287
L54468 35846
" />
<path d="M53690 32507
L55031 32507
" />
<path d="M54653 35102
L54468 35287
" />
<path d="M55200 34889
L54988 35102
" />
<path d="M53577 33405
L53577 32621
" />
<path d="M55200 32677
L55200 34889
" />
<path d="M54611 33405
L54611 34203
" />
<path d="M54611 34203
L54342 34472
" />
<path d="M54342 34472
L52724 34472
" />
<path d="M52406 34154
L52406 33405
" />
<path d="M52724 34472
L52406 34154
" />
<path d="M53937 34877
L54342 34472
" />
<path d="M53937 36094
L53937 34877
" />
<path d="M53405 36220
L53811 36220
" />
<path d="M53811 36220
L53937 36094
" />
<path d="M57362 38543
L57362 37987
" />
<path d="M55782 38740
L57165 38740
" />
<path d="M57165 38740
L57362 38543
" />
<path d="M60086 37216
L61417 37216
" />
<path d="M57362 37987
L59315 37987
" />
<path d="M59315 37987
L60086 37216
" />
<path d="M55782 33405
L55782 34975
" />
<path d="M56313 35506
L57362 35506
" />
<path d="M55782 34975
L56313 35506
" />
<path d="M55811 36009
L56313 35506
" />
<path d="M55811 37472
L55811 36009
" />
<path d="M57362 37987
L56325 37987
" />
<path d="M56325 37987
L55811 37472
" />
<path d="M54468 36594
L54468 37263
" />
<path d="M54611 37406
L54611 38740
" />
<path d="M54468 37263
L54611 37406
" />
<path d="M54611 38740
L54611 39266
" />
<path d="M52406 39477
L52406 38740
" />
<path d="M52704 39775
L52406 39477
" />
<path d="M52704 39783
L52704 39775
" />
<path d="M54251 39783
L52704 39783
" />
<path d="M54611 38740
L54611 39424
" />
<path d="M54611 39424
L54251 39783
" />
</g>
<g style="fill:#840000; fill-opacity:1.0; 
stroke:#840000; stroke-width:100; stroke-opacity:1; 
stroke-linecap:round; stroke-linejoin:round;">
<polyline style="fill-rule:evenodd;"
points="63040,34367
62942,38657
62917,38680
62722,38718
62493,38871
62340,39100
62320,39202
61548,39877
54580,39877
54801,39656
54826,39639
54893,39540
54902,39495
54928,39489
55043,39413
55119,39298
55146,39163
55146,38316
55119,38181
55043,38067
54928,37990
54910,37986
54910,37435
54916,37406
54910,37377
54910,37377
54893,37289
54826,37190
54801,37174
54767,37139
54767,36977
54775,36977
54873,36957
54955,36902
55011,36819
55030,36722
55030,36466
55018,36407
55030,36348
55030,36092
55018,36033
55030,35974
55030,35718
55011,35620
54955,35538
54873,35483
54775,35463
54767,35463
54767,35411
54777,35401
54958,35401
54988,35407
55017,35401
55017,35401
55104,35384
55203,35318
55220,35293
55391,35122
55416,35105
55433,35080
55433,35080
55482,35006
55482,35006
55483,35004
55483,35004
55500,35092
55566,35191
55591,35207
55890,35506
55620,35777
55595,35794
55578,35819
55578,35819
55529,35893
55505,36009
55511,36039
55511,37442
55505,37472
55511,37501
55511,37501
55529,37589
55595,37688
55620,37704
55879,37963
55600,37963
55465,37990
55350,38067
55273,38181
55247,38316
55247,39163
55273,39298
55350,39413
55465,39489
55600,39516
55964,39516
56099,39489
56214,39413
56290,39298
56317,39163
56317,39039
57135,39039
57165,39045
57194,39039
57194,39039
57282,39022
57381,38955
57397,38930
57552,38775
57577,38759
57640,38665
57644,38660
57651,38623
57661,38572
57661,38572
57667,38543
57663,38522
57785,38522
57920,38495
58035,38419
58111,38304
58115,38286
59286,38286
59315,38292
59345,38286
59345,38286
59432,38269
59531,38202
59548,38177
60210,37515
60716,37515
60771,37648
60985,37862
61265,37978
61568,37978
61848,37862
62063,37648
62179,37368
62179,37065
62063,36785
61848,36570
61568,36454
61265,36454
60985,36570
60771,36785
60716,36917
60116,36917
60086,36911
60057,36917
60057,36917
59969,36934
59870,37000
59854,37025
59192,37687
58115,37687
58111,37669
58035,37555
57920,37478
57785,37451
56938,37451
56803,37478
56689,37555
56612,37669
56608,37687
56449,37687
56110,37348
56110,36133
56437,35806
56608,35806
56612,35824
56689,35938
56803,36015
56938,36042
57785,36042
57920,36015
58035,35938
58111,35824
58138,35688
58138,35324
58111,35189
58035,35074
57920,34998
57785,34971
56938,34971
56803,34998
56689,35074
56612,35189
56608,35207
56437,35207
56081,34851
56081,34158
56099,34155
56214,34078
56290,33963
56317,33828
56317,32982
56290,32847
56214,32732
56099,32655
55964,32628
55600,32628
55500,32648
55500,32647
55500,32647
55483,32562
61615,32562
63040,34367
" /> 
<polyline style="fill-rule:evenodd;"
points="53272,32621
53278,32650
53278,32652
53260,32655
53145,32732
53069,32847
53042,32982
53042,33828
53069,33963
53145,34078
53260,34155
53351,34173
52848,34173
52787,34112
52838,34078
52915,33963
52941,33828
52941,32982
52915,32847
52838,32732
52723,32655
52588,32628
52224,32628
52089,32655
51974,32732
51897,32847
51871,32982
51871,33828
51897,33963
51974,34078
52089,34155
52102,34157
52107,34183
52107,34183
52124,34271
52190,34370
52215,34386
52491,34663
52508,34688
52533,34704
52533,34704
52583,34737
52607,34754
52694,34771
52694,34771
52724,34777
52753,34771
53653,34771
53631,34877
53637,34907
53637,35837
53098,35837
53000,35857
52918,35912
52862,35994
52843,36092
52843,36295
52017,36295
51988,36289
51958,36295
51958,36295
51871,36312
51772,36378
51755,36403
51436,36723
51284,36723
51281,36705
51204,36590
51089,36514
50954,36487
50108,36487
49973,36514
49858,36590
49781,36705
49778,36723
48853,36723
48823,36717
48794,36723
48794,36723
48730,36736
48707,36740
48670,36765
48608,36806
48591,36831
48517,36905
47157,36905
47102,36773
46888,36558
46793,36519
46816,36496
47163,36496
47192,36501
47222,36496
47297,36496
47384,36478
47483,36412
47549,36313
47562,36250
49045,34767
49778,34767
49781,34785
49858,34900
49973,34977
50108,35003
50954,35003
51089,34977
51204,34900
51281,34785
51308,34650
51308,34286
51281,34151
51204,34036
51089,33959
50954,33933
50108,33933
49973,33959
49858,34036
49781,34151
49778,34169
48950,34169
48921,34163
48891,34169
48891,34169
48804,34186
48705,34252
48688,34277
47068,35897
46722,35897
46692,35891
46663,35897
46663,35897
46576,35914
46477,35981
46460,36006
46265,36200
46240,36217
46224,36242
46224,36242
46174,36316
46151,36433
46157,36462
46157,36504
46025,36558
45810,36773
45694,37053
45694,37356
45810,37636
46025,37850
46305,37966
46608,37966
46888,37850
47102,37636
47157,37503
48612,37503
48641,37509
48671,37503
48671,37503
48758,37486
48857,37420
48874,37395
48947,37321
49778,37321
49781,37339
49858,37454
49973,37531
50108,37558
50954,37558
51089,37531
51204,37454
51281,37339
51284,37321
51530,37321
51560,37327
51589,37321
51589,37321
51676,37304
51775,37238
51792,37213
52112,36893
52912,36893
52918,36902
53000,36957
53098,36977
53712,36977
53810,36957
53892,36902
53907,36880
53927,36876
53952,36859
53981,36902
54063,36957
54161,36977
54169,36977
54169,37234
54163,37263
54169,37293
54186,37380
54252,37479
54277,37496
54312,37530
54312,37986
54293,37990
54179,38067
54102,38181
54075,38316
54075,39163
54102,39298
54179,39413
54191,39421
54128,39484
52836,39484
52794,39442
52838,39413
52915,39298
52941,39163
52941,38316
52915,38181
52838,38067
52723,37990
52588,37963
52224,37963
52089,37990
51974,38067
51897,38181
51871,38316
51871,39163
51897,39298
51974,39413
52089,39489
52104,39492
52107,39506
52107,39506
52124,39594
52190,39693
52215,39709
52383,39877
51259,39877
51281,39844
51308,39709
51308,39345
51281,39210
51204,39095
51089,39019
50954,38992
50108,38992
49973,39019
49858,39095
49781,39210
49754,39345
49754,39709
49781,39844
49803,39877
45922,39877
45554,39206
45533,39100
45380,38871
45364,38861
44374,37054
44374,34062
44850,33769
44881,33775
45151,33722
45380,33569
45522,33356
46811,32562
53284,32562
53272,32621
" /> 
</g>
<g style="fill:#FFFFFF; fill-opacity:1.0; 
stroke:#FFFFFF; stroke-width:100; stroke-opacity:1; 
stroke-linecap:round; stroke-linejoin:round;">
</g>
<g style="fill:#FFFFFF; fill-opacity:1.0; 
stroke:#FFFFFF; stroke-width:0; stroke-opacity:1; 
stroke-linecap:round; stroke-linejoin:round;">
<circle cx="50531.5" cy="39527.6" r="78.7402" /> 
</g>
<g style="fill:#FFFFFF; fill-opacity:1.0; 
stroke:#FFFFFF; stroke-width:39.3701; stroke-opacity:1; 
stroke-linecap:round; stroke-linejoin:round;">
</g>
<g style="fill:#FFFFFF; fill-opacity:1.0; 
stroke:#FFFFFF; stroke-width:0; stroke-opacity:1; 
stroke-linecap:round; stroke-linejoin:round;">
<circle cx="46456.7" cy="37204.7" r="255.906" /> 
</g>
<g style="fill:#FFFFFF; fill-opacity:1.0; 
stroke:#FFFFFF; stroke-width:39.3701; stroke-opacity:1; 
stroke-linecap:round; stroke-linejoin:round;">
</g>
<g style="fill:#FFFFFF; fill-opacity:1.0; 
stroke:#FFFFFF; stroke-width:0; stroke-opacity:1; 
stroke-linecap:round; stroke-linejoin:round;">
<circle cx="46456.7" cy="35204.7" r="255.906" /> 
</g>
<g style="fill:#FFFFFF; fill-opacity:1.0; 
stroke:#FFFFFF; stroke-width:39.3701; stroke-opacity:1; 
stroke-linecap:round; stroke-linejoin:round;">
</g>
<g style="fill:#FFFFFF; fill-opacity:1.0; 
stroke:#FFFFFF; stroke-width:0; stroke-opacity:1; 
stroke-linecap:round; stroke-linejoin:round;">
<circle cx="61417.3" cy="35216.5" r="255.906" /> 
</g>
<g style="fill:#FFFFFF; fill-opacity:1.0; 
stroke:#FFFFFF; stroke-width:39.3701; stroke-opacity:1; 
stroke-linecap:round; stroke-linejoin:round;">
</g>
<g style="fill:#FFFFFF; fill-opacity:1.0; 
stroke:#FFFFFF; stroke-width:0; stroke-opacity:1; 
stroke-linecap:round; stroke-linejoin:round;">
<circle cx="61417.3" cy="37216.5" r="255.906" /> 
</g>
<g style="fill:#FFFFFF; fill-opacity:1.0; 
stroke:#FFFFFF; stroke-width:39.3701; stroke-opacity:1; 
stroke-linecap:round; stroke-linejoin:round;">
</g>
<g style="fill:#000000; fill-opacity:1.0; 
stroke:#000000; stroke-width:39.3701; stroke-opacity:1; 
stroke-linecap:round; stroke-linejoin:round;">
</g>
<g style="fill:#BFBF00; fill-opacity:1.0; 
stroke:#BFBF00; stroke-width:39.3701; stroke-opacity:1; 
stroke-linecap:round; stroke-linejoin:round;">
</g>
<g style="fill:#BFBF00; fill-opacity:0.0; 
stroke:#BFBF00; stroke-width:59.0551; stroke-opacity:1; 
stroke-linecap:round; stroke-linejoin:round;">
<path d="M44094.5 39370.1 A787.402 787.402 0.0 0 0 44881.9 40157.5 " />
<path d="M44881.9 32283.5 A787.402 787.402 0.0 0 0 44094.5 33070.9 " />
<path d="M63779.5 33070.9 A787.402 787.402 0.0 0 0 62992.1 32283.5 " />
<path d="M62992.1 40157.5 A787.402 787.402 0.0 0 0 63779.5 39370.1 " />
<circle cx="44881.9" cy="39370.1" r="417.397" /> 
<circle cx="44881.9" cy="33070.9" r="417.397" /> 
<circle cx="62992.1" cy="33070.9" r="417.397" /> 
<circle cx="62992.1" cy="39370.1" r="417.397" /> 
<path d="M44094 33070
L44094 36220
" />
<path d="M44094 39370
L44094 36220
" />
<path d="M62992 32283
L44881 32283
" />
<path d="M63779 39370
L63779 33070
" />
<path d="M44881 40157
L62992 40157
" />
</g> 
</svg>
